<svg width="5.2347in" height="1.638in" enable-background="new 0 0 639.024 83.791" version="1.1" viewBox="0 0 1990.1 622.73" xml:space="preserve" xmlns="http://www.w3.org/2000/svg" xmlns:osb="http://www.openswatchbook.org/uri/2009/osb" xmlns:xlink="http://www.w3.org/1999/xlink"><defs><linearGradient id="linearGradient1021" gradientTransform="matrix(15.762 0 0 15.862 -3095.7 -9591)" osb:paint="solid"><stop stop-color="#fff" offset="0"/></linearGradient><linearGradient id="bammerlaan_blauw" osb:paint="solid"><stop stop-color="#00b3ff" offset="0"/></linearGradient><linearGradient id="linearGradient903" x1="291.27" x2="364.54" y1="-55.239" y2="-55.239" gradientTransform="matrix(11.243 0 0 11.243 -1846.9 965.89)" gradientUnits="userSpaceOnUse" xlink:href="#bammerlaan_blauw"/><linearGradient id="linearGradient919" x1="555.34" x2="637.74" y1="-103.67" y2="-103.67" gradientUnits="userSpaceOnUse" xlink:href="#bammerlaan_blauw"/><linearGradient id="linearGradient1065" x1="-.041878" x2="13.408" y1="7.1251" y2="7.1251" gradientTransform="matrix(48.583 0 0 105.42 1355.2 -412.17)" gradientUnits="userSpaceOnUse" xlink:href="#linearGradient1021"/><linearGradient id="linearGradient1067" x1="-.041878" x2="13.408" y1="7.1251" y2="7.1251" gradientTransform="matrix(42.302 0 0 105.42 1425.5 -412.17)" gradientUnits="userSpaceOnUse" xlink:href="#linearGradient1021"/><linearGradient id="linearGradient1069" x1="-.041878" x2="13.408" y1="7.1251" y2="7.1251" gradientTransform="matrix(41.617 0 0 105.42 1430.9 -412.17)" gradientUnits="userSpaceOnUse" xlink:href="#linearGradient1021"/><linearGradient id="linearGradient1071" x1="-.041878" x2="13.408" y1="7.1251" y2="7.1251" gradientTransform="matrix(42.129 0 0 105.42 1426.9 -412.18)" gradientUnits="userSpaceOnUse" xlink:href="#linearGradient1021"/><linearGradient id="linearGradient1073" x1="-.041878" x2="13.408" y1="7.1251" y2="7.1251" gradientTransform="matrix(47.795 0 0 105.42 1360.1 -412.17)" gradientUnits="userSpaceOnUse" xlink:href="#linearGradient1021"/><linearGradient id="linearGradient1308" x1="179.2" x2="267.18" y1="-63.156" y2="-63.156" gradientTransform="translate(-179.2 82.91)" gradientUnits="userSpaceOnUse" xlink:href="#bammerlaan_blauw"/><linearGradient id="linearGradient1312" x1="216.6" x2="267.26" y1="-49.896" y2="-49.896" gradientTransform="translate(-176.68 82.819)" gradientUnits="userSpaceOnUse" xlink:href="#bammerlaan_blauw"/></defs><g stroke-width="1px">

<g transform="matrix(15.762 0 0 15.762 -8665.4 1737.8)" fill="url(#linearGradient919)" style="font-feature-settings:normal;font-variant-caps:normal;font-variant-ligatures:normal;font-variant-numeric:normal" aria-label="Sebastiaan"><path d="m563.12-100.28q0-1.0241-0.7194-1.6165-0.71941-0.60091-2.6322-1.1341-1.9128-0.54167-2.793-1.1764-1.2526-0.89714-1.2526-2.3529 0-1.4134 1.1595-2.2936 1.168-0.88867 2.9792-0.88867 1.2272 0 2.1921 0.47396 0.97331 0.47396 1.5065 1.3203t0.5332 1.8874h-1.0495q0-1.2611-0.86328-2.0228-0.86328-0.77018-2.319-0.77018-1.4134 0-2.2513 0.63477-0.83789 0.6263-0.83789 1.6419 0 0.93946 0.75325 1.5319 0.75326 0.59244 2.4121 1.0495 1.6589 0.44857 2.5137 0.93946 0.85481 0.48242 1.2864 1.1595 0.43165 0.67709 0.43165 1.5996 0 1.4557-1.168 2.3359-1.1595 0.88021-3.0638 0.88021-1.3034 0-2.3952-0.4655-1.0833-0.46549-1.6504-1.3034-0.55859-0.83789-0.55859-1.9212h1.041q0 1.3034 0.97331 2.0566 0.97331 0.75326 2.5898 0.75326 1.4388 0 2.3106-0.63477 0.87175-0.63476 0.87175-1.6842z" style="font-feature-settings:normal;font-variant-caps:normal;font-variant-ligatures:normal;font-variant-numeric:normal"/><path d="m569.72-97.086q-1.168 0-2.1159-0.57552-0.93945-0.57552-1.4642-1.5996-0.52474-1.0325-0.52474-2.3105v-0.36393q0-1.3203 0.50781-2.3783 0.51628-1.0579 1.4303-1.6588 0.91406-0.60938 1.9805-0.60938 1.6673 0 2.6406 1.1426 0.98177 1.1341 0.98177 3.1061v0.56706h-6.5338v0.19466q0 1.5573 0.88867 2.5983 0.89714 1.0326 2.2513 1.0326 0.8125 0 1.4303-0.29622 0.6263-0.29622 1.1341-0.94792l0.63476 0.48242q-1.1172 1.6165-3.2415 1.6165zm-0.18619-8.6328q-1.1426 0-1.9297 0.83789-0.77865 0.83789-0.94792 2.2513h5.4928v-0.11003q-0.0423-1.3203-0.75325-2.1497-0.71094-0.82942-1.862-0.82942z" style="font-feature-settings:normal;font-variant-caps:normal;font-variant-ligatures:normal;font-variant-numeric:normal"/><path d="m582.51-101.74q0 2.1413-0.94792 3.4023-0.94791 1.2526-2.5475 1.2526-1.9128 0-2.8945-1.4219l-0.0423 1.2526h-0.94792v-13h1.0072v5.1712q0.96485-1.498 2.8607-1.498 1.625 0 2.5644 1.2441 0.94792 1.2357 0.94792 3.4447zm-1.0156-0.17773q0-1.8112-0.70248-2.793-0.70247-0.99024-1.9805-0.99024-0.9733 0-1.6504 0.48242-0.67708 0.47396-1.0241 1.3965v4.1302q0.76172 1.7266 2.6914 1.7266 1.2526 0 1.9551-0.99024 0.71094-0.99023 0.71094-2.9622z" style="font-feature-settings:normal;font-variant-caps:normal;font-variant-ligatures:normal;font-variant-numeric:normal"/><path d="m590.54-97.255q-0.15235-0.43164-0.19466-1.278-0.53321 0.69401-1.3626 1.0749-0.82097 0.3724-1.7435 0.3724-1.3203 0-2.1413-0.73633-0.8125-0.73633-0.8125-1.862 0-1.3372 1.1087-2.1159 1.1172-0.77865 3.1061-0.77865h1.8366v-1.041q0-0.98177-0.60937-1.5404-0.60091-0.56706-1.7604-0.56706-1.0579 0-1.752 0.54167t-0.69401 1.3034l-1.0156-8e-3q0-1.0918 1.0156-1.8874 1.0156-0.80404 2.4967-0.80404 1.5319 0 2.4121 0.77019 0.88867 0.76172 0.91406 2.1328v4.3333q0 1.3288 0.2793 1.9889v0.10156zm-3.1823-0.72786q1.0156 0 1.8112-0.49089 0.80404-0.49088 1.168-1.3118v-2.0143h-1.8112q-1.515 0.0169-2.3698 0.55859-0.85481 0.5332-0.85481 1.4727 0 0.77018 0.56705 1.278 0.57552 0.50781 1.4896 0.50781z" style="font-feature-settings:normal;font-variant-caps:normal;font-variant-ligatures:normal;font-variant-numeric:normal"/><path d="m599.52-99.582q0-0.75325-0.60938-1.2103-0.60091-0.45703-1.8197-0.71094-1.2188-0.26237-1.8958-0.59245-0.66862-0.33854-0.9987-0.82096-0.32162-0.48242-0.32162-1.168 0-1.0833 0.9056-1.7858 0.9056-0.71094 2.319-0.71094 1.5319 0 2.4544 0.76172 0.93099 0.75326 0.93099 1.972h-1.0156q0-0.80404-0.67709-1.3372-0.66862-0.5332-1.6927-0.5332-0.99869 0-1.6081 0.44856-0.60091 0.44011-0.60091 1.151 0 0.68555 0.49935 1.0664 0.50781 0.3724 1.8366 0.68555 1.3372 0.31315 1.9974 0.66862 0.66862 0.35547 0.99024 0.85482 0.32161 0.49934 0.32161 1.2103 0 1.1595-0.93945 1.8535-0.93099 0.69401-2.4375 0.69401-1.5996 0-2.5983-0.77018-0.99023-0.77865-0.99023-1.9635h1.0156q0.0592 0.88867 0.74479 1.388 0.69401 0.49088 1.8281 0.49088 1.0579 0 1.7096-0.46549 0.6517-0.4655 0.6517-1.1764z" style="font-feature-settings:normal;font-variant-caps:normal;font-variant-ligatures:normal;font-variant-numeric:normal"/><path d="m604.38-108.76v2.3444h1.8958v0.82943h-1.8958v6.1022q0 0.76172 0.27083 1.1341 0.2793 0.3724 0.92253 0.3724 0.25391 0 0.82096-0.08463l0.0423 0.82943q-0.39779 0.14388-1.0833 0.14388-1.041 0-1.515-0.60091-0.47395-0.60938-0.47395-1.7858v-6.1107h-1.6842v-0.82943h1.6842v-2.3444z" style="font-feature-settings:normal;font-variant-caps:normal;font-variant-ligatures:normal;font-variant-numeric:normal"/><path d="m609.52-97.255h-1.0156v-9.1576h1.0156zm-1.1934-11.807q0-0.28776 0.1862-0.48243 0.1862-0.20312 0.50781-0.20312 0.32162 0 0.50782 0.20312 0.19466 0.19467 0.19466 0.48243t-0.19466 0.48242q-0.1862 0.19466-0.50782 0.19466-0.32161 0-0.50781-0.19466t-0.1862-0.48242z" style="font-feature-settings:normal;font-variant-caps:normal;font-variant-ligatures:normal;font-variant-numeric:normal"/><path d="m618.06-97.255q-0.15235-0.43164-0.19467-1.278-0.5332 0.69401-1.3626 1.0749-0.82096 0.3724-1.7435 0.3724-1.3203 0-2.1413-0.73633-0.8125-0.73633-0.8125-1.862 0-1.3372 1.1087-2.1159 1.1172-0.77865 3.1061-0.77865h1.8366v-1.041q0-0.98177-0.60937-1.5404-0.60092-0.56706-1.7604-0.56706-1.0579 0-1.752 0.54167-0.69402 0.54167-0.69402 1.3034l-1.0156-8e-3q0-1.0918 1.0156-1.8874 1.0156-0.80404 2.4968-0.80404 1.5319 0 2.4121 0.77019 0.88867 0.76172 0.91406 2.1328v4.3333q0 1.3288 0.2793 1.9889v0.10156zm-3.1823-0.72786q1.0156 0 1.8112-0.49089 0.80404-0.49088 1.168-1.3118v-2.0143h-1.8112q-1.515 0.0169-2.3698 0.55859-0.85482 0.5332-0.85482 1.4727 0 0.77018 0.56706 1.278 0.57552 0.50781 1.4896 0.50781z" style="font-feature-settings:normal;font-variant-caps:normal;font-variant-ligatures:normal;font-variant-numeric:normal"/><path d="m627.34-97.255q-0.15234-0.43164-0.19466-1.278-0.5332 0.69401-1.3626 1.0749-0.82096 0.3724-1.7435 0.3724-1.3203 0-2.1413-0.73633-0.8125-0.73633-0.8125-1.862 0-1.3372 1.1087-2.1159 1.1172-0.77865 3.1061-0.77865h1.8366v-1.041q0-0.98177-0.60938-1.5404-0.60091-0.56706-1.7604-0.56706-1.058 0-1.752 0.54167t-0.69401 1.3034l-1.0156-8e-3q0-1.0918 1.0156-1.8874 1.0156-0.80404 2.4968-0.80404 1.5319 0 2.4121 0.77019 0.88867 0.76172 0.91406 2.1328v4.3333q0 1.3288 0.2793 1.9889v0.10156zm-3.1823-0.72786q1.0156 0 1.8112-0.49089 0.80403-0.49088 1.168-1.3118v-2.0143h-1.8112q-1.515 0.0169-2.3698 0.55859-0.85482 0.5332-0.85482 1.4727 0 0.77018 0.56706 1.278 0.57552 0.50781 1.4896 0.50781z" style="font-feature-settings:normal;font-variant-caps:normal;font-variant-ligatures:normal;font-variant-numeric:normal"/><path d="m631.8-106.41 0.0338 1.5658q0.51628-0.84635 1.2865-1.2865 0.77018-0.44857 1.7012-0.44857 1.4727 0 2.1921 0.82943t0.72786 2.4883v6.0091h-1.0072v-6.0176q-8e-3 -1.2272-0.52474-1.8281-0.50781-0.60091-1.6335-0.60091-0.93946 0-1.6673 0.59245-0.7194 0.58398-1.0664 1.5827v6.2715h-1.0072v-9.1576z" style="font-feature-settings:normal;font-variant-caps:normal;font-variant-ligatures:normal;font-variant-numeric:normal"/></g><g transform="matrix(15.762 0 0 15.762 0 3.7978e-5)" fill="url(#linearGradient1308)" style="font-feature-settings:normal;font-variant-caps:normal;font-variant-ligatures:normal;font-variant-numeric:normal" aria-label="Ammerlaan"><path d="m7.998 22.953h-5.1628l-1.1595 3.2161h-1.6758l4.7057-12.323h1.4219l4.7142 12.323h-1.6673zm-4.6719-1.3372h4.1895l-2.099-5.7637z" style="font-feature-settings:normal;font-variant-caps:normal;font-variant-ligatures:normal;font-variant-numeric:normal"/><path d="m13.728 17.012 0.04232 1.0156q1.0072-1.1849 2.7168-1.1849 1.9212 0 2.6152 1.4727 0.45703-0.66016 1.1849-1.0664 0.73633-0.40625 1.735-0.40625 3.013 0 3.0638 3.1908v6.1361h-1.5658v-6.043q0-0.98177-0.44857-1.4642-0.44857-0.49088-1.5065-0.49088-0.87174 0-1.4473 0.52474-0.57552 0.51628-0.66862 1.3965v6.0768h-1.5742v-6.0007q0-1.9974-1.9551-1.9974-1.5404 0-2.1074 1.3118v6.6862h-1.5658v-9.1576z" style="font-feature-settings:normal;font-variant-caps:normal;font-variant-ligatures:normal;font-variant-numeric:normal"/><path d="m28.928 17.012 0.04232 1.0156q1.0072-1.1849 2.7168-1.1849 1.9212 0 2.6152 1.4727 0.45703-0.66016 1.1849-1.0664 0.73633-0.40625 1.735-0.40625 3.013 0 3.0638 3.1908v6.1361h-1.5658v-6.043q0-0.98177-0.44857-1.4642-0.44857-0.49088-1.5065-0.49088-0.87174 0-1.4473 0.52474-0.57552 0.51628-0.66862 1.3965v6.0768h-1.5742v-6.0007q0-1.9974-1.9551-1.9974-1.5404 0-2.1074 1.3118v6.6862h-1.5658v-9.1576z" style="font-feature-settings:normal;font-variant-caps:normal;font-variant-ligatures:normal;font-variant-numeric:normal"/><path d="m46.456 26.339q-1.862 0-3.0299-1.2188-1.168-1.2272-1.168-3.2754v-0.28776q0-1.3626 0.51628-2.429 0.52474-1.0749 1.4557-1.6758 0.93945-0.60938 2.0312-0.60938 1.7858 0 2.776 1.1764 0.99024 1.1764 0.99024 3.3685v0.65169h-6.2038q0.03385 1.3542 0.78711 2.1921 0.76172 0.82943 1.9297 0.82943 0.82943 0 1.4049-0.33854 0.57552-0.33854 1.0072-0.89714l0.95638 0.74479q-1.151 1.7689-3.4531 1.7689zm-0.19466-8.2096q-0.94792 0-1.5911 0.69401-0.64323 0.68555-0.79557 1.9297h4.5872v-0.11849q-0.06771-1.1934-0.64323-1.8451-0.57552-0.66016-1.5573-0.66016z" style="font-feature-settings:normal;font-variant-caps:normal;font-variant-ligatures:normal;font-variant-numeric:normal"/><path d="m56.257 18.417q-0.35547-0.05924-0.77018-0.05924-1.5404 0-2.0905 1.3118v6.5h-1.5658v-9.1576h1.5234l0.02539 1.0579q0.77018-1.2272 2.1836-1.2272 0.45703 0 0.69401 0.11849z" style="font-feature-settings:normal;font-variant-caps:normal;font-variant-ligatures:normal;font-variant-numeric:normal"/><path d="m59.389 26.169h-1.5658v-13h1.5658z" style="font-feature-settings:normal;font-variant-caps:normal;font-variant-ligatures:normal;font-variant-numeric:normal"/><path d="m67.539 26.169q-0.13542-0.27083-0.22005-0.96484-1.0918 1.1341-2.6068 1.1341-1.3542 0-2.2259-0.76172-0.86328-0.77018-0.86328-1.9466 0-1.4303 1.0833-2.2174 1.0918-0.79557 3.0638-0.79557h1.5234v-0.7194q0-0.82096-0.49089-1.3034-0.49088-0.49089-1.4473-0.49089-0.83789 0-1.4049 0.42318-0.56706 0.42318-0.56706 1.0241h-1.5742q0-0.68555 0.48242-1.3203 0.49088-0.64323 1.3203-1.0156 0.83789-0.3724 1.8366-0.3724 1.5827 0 2.4798 0.79557 0.89714 0.78711 0.93099 2.1751v4.2148q0 1.2611 0.32162 2.0059v0.13542zm-2.5983-1.1934q0.73633 0 1.3965-0.38086 0.66016-0.38086 0.95638-0.99023v-1.8789h-1.2272q-2.8776 0-2.8776 1.6842 0 0.73633 0.49088 1.151 0.49089 0.41471 1.2611 0.41471z" style="font-feature-settings:normal;font-variant-caps:normal;font-variant-ligatures:normal;font-variant-numeric:normal"/><path d="m76.984 26.169q-0.13542-0.27083-0.22005-0.96484-1.0918 1.1341-2.6068 1.1341-1.3542 0-2.2259-0.76172-0.86328-0.77018-0.86328-1.9466 0-1.4303 1.0833-2.2174 1.0918-0.79557 3.0638-0.79557h1.5234v-0.7194q0-0.82096-0.49089-1.3034-0.49088-0.49089-1.4473-0.49089-0.83789 0-1.4049 0.42318-0.56706 0.42318-0.56706 1.0241h-1.5742q0-0.68555 0.48242-1.3203 0.49089-0.64323 1.3203-1.0156 0.83789-0.3724 1.8366-0.3724 1.5827 0 2.4798 0.79557 0.89714 0.78711 0.93099 2.1751v4.2148q0 1.2611 0.32161 2.0059v0.13542zm-2.5983-1.1934q0.73633 0 1.3965-0.38086 0.66016-0.38086 0.95638-0.99023v-1.8789h-1.2272q-2.8776 0-2.8776 1.6842 0 0.73633 0.49088 1.151 0.49089 0.41471 1.2611 0.41471z" style="font-feature-settings:normal;font-variant-caps:normal;font-variant-ligatures:normal;font-variant-numeric:normal"/><path d="m82.257 17.012 0.05078 1.151q1.0495-1.3203 2.7422-1.3203 2.903 0 2.9284 3.2754v6.0514h-1.5658v-6.0599q-0.0085-0.99024-0.45703-1.4642-0.4401-0.47396-1.3796-0.47396-0.76172 0-1.3372 0.40625-0.57552 0.40625-0.89714 1.0664v6.5254h-1.5658v-9.1576z" style="font-feature-settings:normal;font-variant-caps:normal;font-variant-ligatures:normal;font-variant-numeric:normal"/></g>
<g transform="matrix(15.762 0 0 15.762 0 3.7978e-5)" fill="url(#linearGradient1312)" style="font-feature-settings:normal;font-variant-caps:normal;font-variant-ligatures:normal;font-variant-numeric:normal" aria-label="bariton"><path d="m44.704 34.853q0 2.1413-0.94792 3.4023-0.94792 1.2526-2.5475 1.2526-1.9128 0-2.8945-1.4219l-0.04232 1.2526h-0.94792v-13h1.0072v5.1712q0.96484-1.498 2.8607-1.498 1.625 0 2.5645 1.2441 0.94792 1.2357 0.94792 3.4447zm-1.0156-0.17773q0-1.8112-0.70247-2.793-0.70247-0.99023-1.9805-0.99023-0.97331 0-1.6504 0.48242-0.67708 0.47396-1.0241 1.3965v4.1302q0.76172 1.7266 2.6914 1.7266 1.2526 0 1.9551-0.99024 0.71094-0.99023 0.71094-2.9622z"/><path d="m52.728 39.339q-0.15234-0.43164-0.19466-1.278-0.5332 0.69401-1.3626 1.0749-0.82096 0.3724-1.7435 0.3724-1.3203 0-2.1413-0.73633-0.8125-0.73633-0.8125-1.862 0-1.3372 1.1087-2.1159 1.1172-0.77864 3.1061-0.77864h1.8366v-1.041q0-0.98177-0.60938-1.5404-0.60091-0.56706-1.7604-0.56706-1.0579 0-1.752 0.54167-0.69401 0.54167-0.69401 1.3034l-1.0156-0.0085q0-1.0918 1.0156-1.8874 1.0156-0.80404 2.4967-0.80404 1.5319 0 2.4121 0.77018 0.88867 0.76172 0.91406 2.1328v4.3333q0 1.3288 0.2793 1.9889v0.10156zm-3.1823-0.72786q1.0156 0 1.8112-0.49089 0.80404-0.49088 1.168-1.3118v-2.0143h-1.8112q-1.515 0.01693-2.3698 0.55859-0.85482 0.5332-0.85482 1.4727 0 0.77018 0.56706 1.278 0.57552 0.50781 1.4896 0.50781z"/><path d="m60.455 31.044q-0.32162-0.05925-0.68555-0.05925-0.94792 0-1.6081 0.5332-0.65169 0.52474-0.93099 1.5319v6.2884h-1.0072v-9.1576h0.99023l0.01693 1.4557q0.80404-1.625 2.5814-1.625 0.42318 0 0.66862 0.11003z"/><path d="m63.18 39.339h-1.0156v-9.1576h1.0156zm-1.1934-11.807q0-0.28776 0.1862-0.48242 0.1862-0.20312 0.50781-0.20312t0.50781 0.20312q0.19466 0.19466 0.19466 0.48242t-0.19466 0.48242q-0.1862 0.19466-0.50781 0.19466-0.32162 0-0.50781-0.19466-0.1862-0.19466-0.1862-0.48242z"/><path d="m67.514 27.837v2.3444h1.8958v0.82943h-1.8958v6.1022q0 0.76172 0.27083 1.1341 0.2793 0.3724 0.92253 0.3724 0.25391 0 0.82096-0.08464l0.04232 0.82943q-0.39779 0.14388-1.0833 0.14388-1.041 0-1.515-0.60091-0.47396-0.60938-0.47396-1.7858v-6.1107h-1.6842v-0.82943h1.6842v-2.3444z"/><path d="m70.798 34.625q0-1.3203 0.50781-2.3783 0.51628-1.0579 1.4473-1.6419 0.93945-0.59245 2.1243-0.59245 1.8281 0 2.9622 1.2865 1.1341 1.278 1.1341 3.3939v0.21159q0 1.3288-0.51628 2.3952-0.50781 1.0579-1.4388 1.6335-0.93099 0.57552-2.1243 0.57552-1.8197 0-2.9622-1.278-1.1341-1.2865-1.1341-3.4023zm1.0156 0.2793q0 1.6419 0.84635 2.6999 0.85482 1.0495 2.2344 1.0495 1.3711 0 2.2174-1.0495 0.85482-1.0579 0.85482-2.7845v-0.19466q0-1.0495-0.38932-1.9212-0.38932-0.87174-1.0918-1.3457-0.70247-0.48242-1.6081-0.48242-1.3542 0-2.209 1.0664-0.85482 1.0579-0.85482 2.776z"/><path d="m82.037 30.181 0.03385 1.5658q0.51628-0.84635 1.2865-1.2865 0.77018-0.44857 1.7012-0.44857 1.4727 0 2.1921 0.82943t0.72786 2.4883v6.0091h-1.0072v-6.0176q-0.0085-1.2272-0.52474-1.8281-0.50781-0.60091-1.6335-0.60091-0.93945 0-1.6673 0.59245-0.7194 0.58398-1.0664 1.5827v6.2715h-1.0072v-9.1576z"/></g>
</g><rect x="1427.9" y="57.855" width="562.16" height="562.16" fill="url(#linearGradient903)" style="paint-order:normal"/><g fill="none" stroke-linecap="square" stroke-linejoin="round">




<path d="m1374.1 549.75h612.68" stroke="url(#linearGradient1065)" stroke-width="6.6231"/><path d="m1431.2 444.34h555.53" stroke="url(#linearGradient1067)" stroke-width="6.6204"/><path d="m1431.2 338.92h555.53" stroke="url(#linearGradient1069)" stroke-width="6.6235"/><path d="m1431.2 233.5h555.53" stroke="url(#linearGradient1071)" stroke-width="6.6203"/><path d="m1374.1 128.09h612.62" stroke="url(#linearGradient1073)" stroke-width="6.6225"/></g><path d="m1882.8 129.9h19.891v421.41h-19.891z" fill="url(#linearGradient1021)"/></svg>
