<svg width="6.304in" height="1.9895in" enable-background="new 0 0 639.024 83.791" version="1.1" viewBox="0 0 605.18 191" xml:space="preserve" xmlns="http://www.w3.org/2000/svg" xmlns:osb="http://www.openswatchbook.org/uri/2009/osb" xmlns:xlink="http://www.w3.org/1999/xlink"><defs><linearGradient id="linearGradient1021" gradientTransform="matrix(4.8344 0 0 4.8651 -954.68 -2941.8)" osb:paint="solid"><stop stop-color="#fff" offset="0"/></linearGradient><linearGradient id="bammerlaan_blauw" osb:paint="solid"><stop stop-color="#00b3ff" offset="0"/></linearGradient><linearGradient id="linearGradient903" x1="291.27" x2="364.54" y1="-55.239" y2="-55.239" gradientTransform="matrix(3.4484 0 0 3.4484 -571.66 296.14)" gradientUnits="userSpaceOnUse" xlink:href="#bammerlaan_blauw"/><linearGradient id="linearGradient921" x1="555.34" x2="637.74" y1="-103.67" y2="-103.67" gradientUnits="userSpaceOnUse" xlink:href="#bammerlaan_blauw"/><linearGradient id="linearGradient1065" x1="-.041878" x2="13.408" y1="7.1251" y2="7.1251" gradientTransform="matrix(14.735 0 0 32.332 412.62 -126.53)" gradientUnits="userSpaceOnUse" xlink:href="#linearGradient1021"/><linearGradient id="linearGradient1067" x1="-.041878" x2="13.408" y1="7.1251" y2="7.1251" gradientTransform="matrix(12.974 0 0 32.332 432.02 -126.53)" gradientUnits="userSpaceOnUse" xlink:href="#linearGradient1021"/><linearGradient id="linearGradient1069" x1="-.041878" x2="13.408" y1="7.1251" y2="7.1251" gradientTransform="matrix(14.107 0 0 32.332 415.62 -126.53)" gradientUnits="userSpaceOnUse" xlink:href="#linearGradient1021"/><linearGradient id="linearGradient1071" x1="-.041878" x2="13.408" y1="7.1251" y2="7.1251" gradientTransform="matrix(12.921 0 0 32.332 432.44 -126.53)" gradientUnits="userSpaceOnUse" xlink:href="#linearGradient1021"/><linearGradient id="linearGradient1073" x1="-.041878" x2="13.408" y1="7.1251" y2="7.1251" gradientTransform="matrix(14.497 0 0 32.332 414.09 -126.53)" gradientUnits="userSpaceOnUse" xlink:href="#linearGradient1021"/><linearGradient id="linearGradient1082" x1="179.2" x2="267.18" y1="-63.156" y2="-63.156" gradientTransform="matrix(4.8344 0 0 4.8344 -866.42 400.82)" gradientUnits="userSpaceOnUse" xlink:href="#bammerlaan_blauw"/><linearGradient id="linearGradient1086" x1="216.6" x2="267.26" y1="-49.896" y2="-49.896" gradientTransform="matrix(4.8344 0 0 4.8344 -859.34 400.38)" gradientUnits="userSpaceOnUse" xlink:href="#bammerlaan_blauw"/></defs><g><g>

<g transform="matrix(4.8344 0 0 4.8344 -2662.9 536.74)" fill="url(#linearGradient921)" stroke-width="1px" style="font-feature-settings:normal;font-variant-caps:normal;font-variant-ligatures:normal;font-variant-numeric:normal" aria-label="Sebastiaan"><path d="m565.02-100.98q0-0.78711-0.3724-1.3288-0.36393-0.55013-1.1595-0.96485-0.78711-0.42318-2.3867-0.86328t-2.4036-0.88867q-0.79557-0.44857-1.168-1.041-0.37239-0.59244-0.37239-1.4388 0-1.3457 1.1341-2.1751 1.1341-0.83789 2.9538-0.83789 1.1849 0 2.1244 0.46549 0.94792 0.45704 1.4642 1.2949 0.51628 0.82942 0.51628 1.8789h-0.45703q0-1.3796-1.0156-2.2767-1.0156-0.9056-2.6322-0.9056-1.625 0-2.6322 0.72787-0.9987 0.7194-0.9987 1.8112 0 1.1087 0.87175 1.7858 0.87174 0.67708 2.8776 1.2018 2.0059 0.51628 2.9368 1.2018 1.1849 0.87174 1.1849 2.3359 0 0.93099-0.52474 1.6504-0.52473 0.71094-1.4896 1.1003-0.96484 0.38932-2.1667 0.38932-1.3372 0-2.4036-0.4401-1.0664-0.44857-1.6081-1.2695-0.53321-0.82096-0.53321-1.9382h0.45703q0 1.515 1.1341 2.3529 1.1341 0.83789 2.9538 0.83789 1.6165 0 2.666-0.73633 1.0495-0.74479 1.0495-1.9297z" style="font-feature-settings:normal;font-variant-caps:normal;font-variant-ligatures:normal;font-variant-numeric:normal"/><path d="m570.95-97.857q-1.1087 0-2.0397-0.59245-0.92253-0.60091-1.4473-1.6419-0.52474-1.041-0.52474-2.3105v-0.38086q0-1.2695 0.50782-2.3275 0.50781-1.0579 1.3965-1.6504t1.9382-0.59245q1.5319 0 2.5052 1.0918t0.97331 2.8691v0.48242h-6.8639v0.49935q0 1.1172 0.4655 2.0736 0.47396 0.94792 1.2949 1.4896 0.82943 0.54167 1.7943 0.54167 0.92253 0 1.5658-0.30469 0.65169-0.31315 1.151-0.95638l0.32161 0.22852q-1.0241 1.4811-3.0384 1.4811zm-0.16927-9.0391q-1.3372 0-2.2682 0.99869-0.93099 0.99024-1.0918 2.5306h6.3815v-0.11002q0-0.93099-0.39779-1.7266-0.38932-0.80403-1.0833-1.2441-0.68555-0.44856-1.5404-0.44856z" style="font-feature-settings:normal;font-variant-caps:normal;font-variant-ligatures:normal;font-variant-numeric:normal"/><path d="m583.39-102.52q0 2.1413-0.92253 3.4023-0.92252 1.2611-2.5137 1.2611-1.0326 0-1.845-0.42318-0.8125-0.43164-1.278-1.1934v1.4473h-0.45703v-13h0.45703v5.5098q0.48243-0.9056 1.2695-1.3711 0.79558-0.4655 1.8366-0.4655 1.6081 0 2.5306 1.2357 0.92253 1.2272 0.92253 3.4531zm-0.47396-0.17774q0-1.972-0.78711-3.0807-0.77865-1.1172-2.1836-1.1172-1.151 0-1.9551 0.59244-0.79557 0.59245-1.1595 1.7604v4.1979q0.36394 0.9733 1.1595 1.5065 0.80404 0.52474 1.972 0.52474 1.4134 0 2.1836-1.1257 0.77018-1.1256 0.77018-3.2585z" style="font-feature-settings:normal;font-variant-caps:normal;font-variant-ligatures:normal;font-variant-numeric:normal"/><path d="m591.79-98.027q-0.16927-0.58398-0.16927-1.6758-0.54166 0.88021-1.4811 1.3626-0.93945 0.48242-2.1244 0.48242-1.2695 0-2.0482-0.68555-0.77019-0.69401-0.77019-1.8027 0-1.2611 1.1341-2.0143 1.1426-0.76171 3.03-0.77864h2.2598v-1.3372q0-1.151-0.72786-1.7858-0.7194-0.63476-2.0651-0.63476-1.2526 0-2.0905 0.64323-0.83789 0.64322-0.83789 1.5911l-0.45703-0.0169q0-1.1172 0.98177-1.8958t2.4036-0.77865q1.4811 0 2.3529 0.7448 0.87174 0.73632 0.89713 2.082v4.3756q0 1.5065 0.23698 2.0482v0.07617zm-3.7747-0.2793q1.2865 0 2.209-0.57552 0.93099-0.57552 1.3965-1.6165v-2.1751h-2.1159q-1.9635 0-3.0046 0.77865-0.84635 0.63476-0.84635 1.5827 0 0.83789 0.66861 1.4219 0.66862 0.58398 1.6927 0.58398z" style="font-feature-settings:normal;font-variant-caps:normal;font-variant-ligatures:normal;font-variant-numeric:normal"/><path d="m600.66-100.27q0-1.6673-2.8438-2.2682-1.7096-0.36393-2.3782-0.93099-0.66862-0.57552-0.66862-1.5742 0-1.0072 0.84635-1.6588 0.85482-0.6517 2.2174-0.6517 1.4811 0 2.3783 0.71094 0.89713 0.70248 0.89713 1.9043h-0.46549q0-0.92253-0.77865-1.5404-0.77864-0.61783-2.0312-0.61783-1.2018 0-1.9043 0.52474-0.70247 0.52474-0.70247 1.3118 0 0.61784 0.26237 0.97331 0.26237 0.34701 0.85482 0.63477 0.59245 0.27929 1.7266 0.54166 1.1341 0.26237 1.7943 0.61784 0.66016 0.35547 0.95638 0.84636 0.29623 0.48242 0.29623 1.1849 0 1.0833-0.88868 1.7435-0.88867 0.66016-2.3275 0.66016-1.5404 0-2.4883-0.69401-0.93945-0.70247-0.93945-1.8027h0.45703q0.0677 0.96485 0.84635 1.5065 0.78711 0.5332 2.1244 0.5332 1.2272 0 1.9889-0.56706 0.77018-0.57552 0.77018-1.388z" style="font-feature-settings:normal;font-variant-caps:normal;font-variant-ligatures:normal;font-variant-numeric:normal"/><path d="m604.67-109.66v2.4714h2.082v0.46549h-2.082v6.5q0 0.97331 0.31315 1.4388 0.32162 0.46549 1.0664 0.46549 0.3724 0 0.9056-0.07617l0.0762 0.43164q-0.2793 0.10156-0.95638 0.10156-0.9987 0-1.4303-0.55013-0.43164-0.55859-0.4401-1.7519v-6.5592h-1.6927v-0.46549h1.6927v-2.4714z" style="font-feature-settings:normal;font-variant-caps:normal;font-variant-ligatures:normal;font-variant-numeric:normal"/><path d="m609.7-98.027h-0.45703v-9.1575h0.45703zm-0.69401-12.018q0-0.19466 0.13541-0.33008 0.13542-0.14388 0.33008-0.14388t0.33008 0.14388q0.14388 0.13542 0.14388 0.33008t-0.14388 0.33008q-0.13542 0.13541-0.33008 0.13541t-0.33008-0.13541q-0.13541-0.13542-0.13541-0.33008z" style="font-feature-settings:normal;font-variant-caps:normal;font-variant-ligatures:normal;font-variant-numeric:normal"/><path d="m618.64-98.027q-0.16927-0.58398-0.16927-1.6758-0.54166 0.88021-1.4811 1.3626-0.93945 0.48242-2.1244 0.48242-1.2695 0-2.0482-0.68555-0.77018-0.69401-0.77018-1.8027 0-1.2611 1.1341-2.0143 1.1426-0.76171 3.03-0.77864h2.2598v-1.3372q0-1.151-0.72786-1.7858-0.7194-0.63476-2.0651-0.63476-1.2526 0-2.0905 0.64323-0.83789 0.64322-0.83789 1.5911l-0.45703-0.0169q0-1.1172 0.98177-1.8958t2.4036-0.77865q1.4811 0 2.3529 0.7448 0.87174 0.73632 0.89714 2.082v4.3756q0 1.5065 0.23697 2.0482v0.07617zm-3.7747-0.2793q1.2865 0 2.209-0.57552 0.93099-0.57552 1.3965-1.6165v-2.1751h-2.1159q-1.9635 0-3.0046 0.77865-0.84635 0.63476-0.84635 1.5827 0 0.83789 0.66862 1.4219 0.66862 0.58398 1.6927 0.58398z" style="font-feature-settings:normal;font-variant-caps:normal;font-variant-ligatures:normal;font-variant-numeric:normal"/><path d="m627.78-98.027q-0.16927-0.58398-0.16927-1.6758-0.54166 0.88021-1.4811 1.3626-0.93945 0.48242-2.1244 0.48242-1.2695 0-2.0482-0.68555-0.77019-0.69401-0.77019-1.8027 0-1.2611 1.1341-2.0143 1.1426-0.76171 3.03-0.77864h2.2598v-1.3372q0-1.151-0.72786-1.7858-0.7194-0.63476-2.0651-0.63476-1.2526 0-2.0905 0.64323-0.83789 0.64322-0.83789 1.5911l-0.45703-0.0169q0-1.1172 0.98177-1.8958t2.4036-0.77865q1.4811 0 2.3529 0.7448 0.87174 0.73632 0.89713 2.082v4.3756q0 1.5065 0.23698 2.0482v0.07617zm-3.7747-0.2793q1.2865 0 2.209-0.57552 0.93099-0.57552 1.3965-1.6165v-2.1751h-2.1159q-1.9635 0-3.0046 0.77865-0.84635 0.63476-0.84635 1.5827 0 0.83789 0.66862 1.4219 0.66862 0.58398 1.6927 0.58398z" style="font-feature-settings:normal;font-variant-caps:normal;font-variant-ligatures:normal;font-variant-numeric:normal"/><path d="m631.46-105.05q0.44857-1.0664 1.3203-1.6842 0.87174-0.61784 1.9297-0.61784 1.4727 0 2.1836 0.8379 0.7194 0.82942 0.72786 2.5137v5.9753h-0.45703v-5.9922q-8e-3 -1.4727-0.60091-2.1751-0.59245-0.71094-1.8789-0.71094-1.1849 0-2.0566 0.84636-0.86328 0.83789-1.168 2.1667v5.8652h-0.45703v-9.1575h0.45703z" style="font-feature-settings:normal;font-variant-caps:normal;font-variant-ligatures:normal;font-variant-numeric:normal"/></g><g fill="url(#linearGradient1082)" stroke-width="4.8344px" style="font-feature-settings:normal;font-variant-caps:normal;font-variant-ligatures:normal;font-variant-numeric:normal" aria-label="Ammerlaan"><path d="m38.461 109.82h-27.045l-6.1374 16.694h-5.2782l22.545-59.574h4.7872l22.545 59.574h-5.2372zm-25.491-4.2962h23.895l-11.947-32.446z" style="font-feature-settings:normal;font-variant-caps:normal;font-variant-ligatures:normal;font-variant-numeric:normal"/><path d="m61.988 82.241 0.16366 7.2012q2.455-4.0098 6.1374-6.0146 3.6824-2.0049 8.1832-2.0049 10.474 0 13.298 8.5923 2.3731-4.1325 6.342-6.342 3.9688-2.2504 8.756-2.2504 14.239 0 14.525 15.548v29.541h-4.9099v-29.173q-0.0409-5.9328-2.5777-8.7969-2.4959-2.8641-8.1832-2.8641-5.2782 0.08183-8.9197 3.4369-3.6415 3.3142-4.0507 8.1014v29.296h-4.9099v-29.541q-0.04092-5.6873-2.7005-8.4696-2.6186-2.8232-8.1014-2.8232-4.6235 0-7.9377 2.6595-3.3142 2.6186-4.9099 7.8149v30.36h-4.9099v-44.271z" style="font-feature-settings:normal;font-variant-caps:normal;font-variant-ligatures:normal;font-variant-numeric:normal"/><path d="m136.29 82.241 0.16366 7.2012q2.455-4.0098 6.1374-6.0146 3.6824-2.0049 8.1832-2.0049 10.474 0 13.298 8.5923 2.3731-4.1325 6.342-6.342 3.9688-2.2504 8.756-2.2504 14.239 0 14.525 15.548v29.541h-4.9099v-29.173q-0.0409-5.9328-2.5777-8.7969-2.4959-2.8641-8.1832-2.8641-5.2782 0.08183-8.9197 3.4369-3.6415 3.3142-4.0507 8.1014v29.296h-4.9099v-29.541q-0.0409-5.6873-2.7004-8.4696-2.6186-2.8232-8.1014-2.8232-4.6235 0-7.9377 2.6595-3.3142 2.6186-4.9099 7.8149v30.36h-4.9099v-44.271z" style="font-feature-settings:normal;font-variant-caps:normal;font-variant-ligatures:normal;font-variant-numeric:normal"/><path d="m223.28 127.33q-5.6464 0-10.229-2.7823-4.5417-2.7823-7.0784-7.7331-2.5368-4.9918-2.5368-11.17v-1.7594q0-6.3829 2.455-11.497 2.4959-5.1145 6.9148-8.0195 4.4189-2.9459 9.5743-2.9459 8.0604 0 12.766 5.5237 4.7462 5.4827 4.7462 15.016v2.7414h-31.587v0.94107q0 7.5285 4.2962 12.561 4.3371 4.9918 10.884 4.9918 3.9279 0 6.9148-1.4321 3.0278-1.4321 5.4827-4.5826l3.0687 2.3322q-5.4009 7.815-15.671 7.815zm-0.90015-41.734q-5.5236 0-9.3288 4.0507-3.7643 4.0507-4.5826 10.884h26.554v-0.5319q-0.20458-6.3829-3.6415-10.393-3.4369-4.0098-9.0015-4.0098z" style="font-feature-settings:normal;font-variant-caps:normal;font-variant-ligatures:normal;font-variant-numeric:normal"/><path d="m269.96 86.415q-1.5548-0.28641-3.3142-0.28641-4.5826 0-7.774 2.5777-3.1505 2.5368-4.5008 7.4058v30.401h-4.869v-44.271h4.7872l0.0818 7.0375q3.887-7.8559 12.479-7.8559 2.0458 0 3.2324 0.53191z" style="font-feature-settings:normal;font-variant-caps:normal;font-variant-ligatures:normal;font-variant-numeric:normal"/><path d="m283.14 126.51h-4.9099v-62.847h4.9099z" style="font-feature-settings:normal;font-variant-caps:normal;font-variant-ligatures:normal;font-variant-numeric:normal"/><path d="m324.42 126.51q-0.73649-2.0867-0.94107-6.1783-2.5777 3.3551-6.5875 5.1963-3.9688 1.8003-8.4287 1.8003-6.3829 0-10.352-3.5597-3.9279-3.5597-3.9279-9.0015 0-6.4647 5.36-10.229 5.4009-3.7643 15.016-3.7643h8.8788v-5.0327q0-4.7462-2.946-7.4467-2.905-2.7414-8.5105-2.7414-5.1145 0-8.4696 2.6186-3.3551 2.6186-3.3551 6.3011l-4.9099-0.04092q0-5.2782 4.9099-9.1243 4.9099-3.887 12.07-3.887 7.4058 0 11.661 3.7234 4.2962 3.6824 4.4189 10.311v20.949q0 6.4238 1.3502 9.6152v0.49099zm-15.384-3.5188q4.9099 0 8.756-2.3731 3.887-2.3731 5.6464-6.342v-9.738h-8.756q-7.324 0.0818-11.456 2.7004-4.1325 2.5777-4.1325 7.1194 0 3.7234 2.7414 6.1783 2.7823 2.455 7.2012 2.455z" style="font-feature-settings:normal;font-variant-caps:normal;font-variant-ligatures:normal;font-variant-numeric:normal"/><path d="m369.27 126.51q-0.73648-2.0867-0.94106-6.1783-2.5777 3.3551-6.5875 5.1963-3.9688 1.8003-8.4287 1.8003-6.3829 0-10.352-3.5597-3.9279-3.5597-3.9279-9.0015 0-6.4647 5.36-10.229 5.4009-3.7643 15.016-3.7643h8.8788v-5.0327q0-4.7462-2.946-7.4467-2.905-2.7414-8.5105-2.7414-5.1145 0-8.4696 2.6186-3.3551 2.6186-3.3551 6.3011l-4.9099-0.04092q0-5.2782 4.9099-9.1243 4.9099-3.887 12.07-3.887 7.4058 0 11.661 3.7234 4.2962 3.6824 4.4189 10.311v20.949q0 6.4238 1.3502 9.6152v0.49099zm-15.384-3.5188q4.9099 0 8.756-2.3731 3.887-2.3731 5.6464-6.342v-9.738h-8.756q-7.324 0.0818-11.456 2.7004-4.1325 2.5777-4.1325 7.1194 0 3.7234 2.7414 6.1783 2.7823 2.455 7.2012 2.455z" style="font-feature-settings:normal;font-variant-caps:normal;font-variant-ligatures:normal;font-variant-numeric:normal"/><path d="m390.83 82.241 0.16367 7.5694q2.4959-4.0916 6.2192-6.2192 3.7234-2.1685 8.2241-2.1685 7.1194 0 10.597 4.0098 3.4778 4.0098 3.5188 12.029v29.05h-4.869v-29.091q-0.0409-5.9328-2.5368-8.8378-2.455-2.905-7.8968-2.905-4.5417 0-8.0604 2.8641-3.4778 2.8232-5.1554 7.6513v30.319h-4.869v-44.271z" style="font-feature-settings:normal;font-variant-caps:normal;font-variant-ligatures:normal;font-variant-numeric:normal"/></g>
<g fill="url(#linearGradient1086)" stroke-width="4.8344px" style="font-feature-settings:normal;font-variant-caps:normal;font-variant-ligatures:normal;font-variant-numeric:normal" aria-label="bariton"><path d="m214.19 168.45q0 10.352-4.4598 16.448-4.4598 6.0965-12.152 6.0965-4.9918 0-8.9197-2.0458-3.9279-2.0867-6.1783-5.7692v6.9966h-2.2095v-62.847h2.2095v26.636q2.3322-4.378 6.1374-6.6284 3.8461-2.2504 8.8788-2.2504 7.774 0 12.234 5.9737 4.4598 5.9328 4.4598 16.694zm-2.2913-0.85924q0-9.5334-3.8052-14.893-3.7643-5.4009-10.556-5.4009-5.5646 0-9.4516 2.8641-3.8461 2.8641-5.6055 8.5105v20.294q1.7594 4.7053 5.6055 7.283 3.887 2.5368 9.5334 2.5368 6.833 0 10.556-5.4418 3.7234-5.4418 3.7234-15.753z" style="font-feature-settings:normal;font-variant-caps:normal;font-variant-ligatures:normal;font-variant-numeric:normal"/><path d="m254.78 190.18q-0.81832-2.8232-0.81832-8.1014-2.6186 4.2553-7.1603 6.5875-4.5417 2.3322-10.27 2.3322-6.1374 0-9.9017-3.3142-3.7234-3.3551-3.7234-8.7151 0-6.0965 5.4827-9.738 5.5236-3.6824 14.648-3.7643h10.925v-6.4647q0-5.5646-3.5188-8.6333-3.4778-3.0687-9.9835-3.0687-6.0556 0-10.106 3.1096-4.0507 3.1096-4.0507 7.6922l-2.2095-0.0818q0-5.4009 4.7462-9.1652 4.7462-3.7643 11.62-3.7643 7.1603 0 11.375 3.6006 4.2144 3.5597 4.3371 10.065v21.154q0 7.283 1.1456 9.9017v0.36825zm-18.249-1.3502q6.2192 0 10.679-2.7823 4.5008-2.7823 6.7511-7.815v-10.515h-10.229q-9.4925 0-14.525 3.7643-4.0916 3.0687-4.0916 7.6513 0 4.0507 3.2324 6.8739t8.1832 2.8232z" style="font-feature-settings:normal;font-variant-caps:normal;font-variant-ligatures:normal;font-variant-numeric:normal"/><path d="m289.89 147.5-2.8641-0.2455q-5.6464 0-9.4516 3.6824-3.8052 3.6415-4.9917 10.229v29.009h-2.2095v-44.271h2.2095v9.2061q1.8003-4.6235 5.4009-7.324 3.6006-2.7004 9.0424-2.7004 1.923 0 3.1096 0.45007z" style="font-feature-settings:normal;font-variant-caps:normal;font-variant-ligatures:normal;font-variant-numeric:normal"/><path d="m301.1 190.18h-2.2095v-44.271h2.2095zm-3.3551-58.101q0-0.94107 0.65466-1.5957 0.65465-0.69557 1.5957-0.69557t1.5957 0.69557q0.69557 0.65466 0.69557 1.5957 0 0.94106-0.69557 1.5957-0.65465 0.65465-1.5957 0.65465t-1.5957-0.65465q-0.65466-0.65466-0.65466-1.5957z" style="font-feature-settings:normal;font-variant-caps:normal;font-variant-ligatures:normal;font-variant-numeric:normal"/><path d="m320.66 133.96v11.947h10.065v2.2504h-10.065v31.423q0 4.7053 1.5139 6.9557 1.5548 2.2504 5.1554 2.2504 1.8003 0 4.378-0.36824l0.36825 2.0867q-1.3502 0.49099-4.6235 0.49099-4.8281 0-6.9148-2.6595-2.0867-2.7004-2.1276-8.4696v-31.71h-8.1832v-2.2504h8.1832v-11.947z" style="font-feature-settings:normal;font-variant-caps:normal;font-variant-ligatures:normal;font-variant-numeric:normal"/><path d="m338.05 167.18q0-6.342 2.414-11.375 2.455-5.0736 6.8739-7.8968 4.4598-2.8232 10.065-2.8232 5.5646 0 9.9835 2.7414 4.4189 2.7414 6.8739 7.774 2.4959 5.0327 2.5368 11.334v1.964q0 6.3829-2.414 11.416t-6.8739 7.8559q-4.4189 2.8232-10.024 2.8232t-10.065-2.7823q-4.4189-2.7823-6.8739-7.774-2.455-5.0327-2.4959-11.293zm2.2095 1.7185q0 5.5237 2.1685 10.147 2.2095 4.5826 6.0965 7.1603 3.9279 2.5777 8.9606 2.5777 7.5694 0 12.316-5.6873 4.7872-5.6873 4.7872-14.648v-1.2684q0-5.4418-2.2095-10.065t-6.1374-7.2012q-3.887-2.6186-8.8378-2.6186-7.5694 0-12.357 5.7691-4.7872 5.7692-4.7872 14.525z" style="font-feature-settings:normal;font-variant-caps:normal;font-variant-ligatures:normal;font-variant-numeric:normal"/><path d="m389.77 156.22q2.1685-5.1554 6.3829-8.1423 4.2144-2.9869 9.3288-2.9869 7.1194 0 10.556 4.0507 3.4779 4.0098 3.5188 12.152v28.887h-2.2095v-28.968q-0.0409-7.1194-2.905-10.515-2.8641-3.4369-9.0833-3.4369-5.7282 0-9.9426 4.0916-4.1734 4.0507-5.6464 10.474v28.355h-2.2095v-44.271h2.2095z" style="font-feature-settings:normal;font-variant-caps:normal;font-variant-ligatures:normal;font-variant-numeric:normal"/></g>
</g><rect x="432.76" y="17.634" width="172.42" height="172.42" fill="url(#linearGradient903)" style="paint-order:normal"/></g><g fill="none" stroke-linecap="square" stroke-linejoin="round">



<path d="m418.35 168.5h185.82" stroke="url(#linearGradient1065)" stroke-width="2.02"/><path d="m433.78 136.17h170.39" stroke="url(#linearGradient1067)" stroke-width="2.0305"/><path d="m415.74 103.84h188.31" stroke="url(#linearGradient1069)" stroke-width="2.1357"/><path d="m433.78 71.507h170.39" stroke="url(#linearGradient1071)" stroke-width="2.0305"/><path d="m418.35 39.175h185.82" stroke="url(#linearGradient1073)" stroke-width="2.0199"/></g><path d="m572.27 39.732h6.1006v129.25h-6.1006z" fill="url(#linearGradient1021)"/></svg>
