<svg width="1.9844in" height="1.796in" enable-background="new 0 0 639.024 83.791" version="1.1" viewBox="0 0 190.51 172.42" xml:space="preserve" xmlns="http://www.w3.org/2000/svg" xmlns:osb="http://www.openswatchbook.org/uri/2009/osb" xmlns:xlink="http://www.w3.org/1999/xlink"><defs><linearGradient id="linearGradient1021" gradientTransform="matrix(4.8344 0 0 4.8651 -2204.5 -3038.2)" osb:paint="solid"><stop stop-color="#fff" offset="0"/></linearGradient><linearGradient id="linearGradient903" x1="291.27" x2="364.54" y1="-55.239" y2="-55.239" gradientTransform="matrix(3.4484 0 0 3.4484 -986.34 278.5)" gradientUnits="userSpaceOnUse"><stop stop-color="#00b3ff" offset="0"/></linearGradient><linearGradient id="linearGradient1065" x1="-.041878" x2="13.408" y1="7.1251" y2="7.1251" gradientTransform="matrix(14.735 0 0 32.332 -2.053 -144.16)" gradientUnits="userSpaceOnUse" xlink:href="#linearGradient1021"/><linearGradient id="linearGradient1067" x1="-.041878" x2="13.408" y1="7.1251" y2="7.1251" gradientTransform="matrix(12.974 0 0 32.332 17.343 -144.16)" gradientUnits="userSpaceOnUse" xlink:href="#linearGradient1021"/><linearGradient id="linearGradient1069" x1="-.041878" x2="13.408" y1="7.1251" y2="7.1251" gradientTransform="matrix(14.107 0 0 32.332 .94318 -144.16)" gradientUnits="userSpaceOnUse" xlink:href="#linearGradient1021"/><linearGradient id="linearGradient1071" x1="-.041878" x2="13.408" y1="7.1251" y2="7.1251" gradientTransform="matrix(12.921 0 0 32.332 17.759 -144.16)" gradientUnits="userSpaceOnUse" xlink:href="#linearGradient1021"/><linearGradient id="linearGradient1073" x1="-.041878" x2="13.408" y1="7.1251" y2="7.1251" gradientTransform="matrix(14.497 0 0 32.332 -.58454 -144.16)" gradientUnits="userSpaceOnUse" xlink:href="#linearGradient1021"/></defs>













<rect x="18.087" width="172.42" height="172.42" fill="url(#linearGradient903)" style="paint-order:normal"/><g fill="none" stroke-linecap="square" stroke-linejoin="round">



<path d="m3.6734 150.87h185.82" stroke="url(#linearGradient1065)" stroke-width="2.02"/><g stroke-width="2.02"><path d="m19.1 118.54h170.39" stroke="url(#linearGradient1067)"/><path d="m1.0678 86.205h188.31" stroke="url(#linearGradient1069)"/><path d="m19.1 53.873h170.39" stroke="url(#linearGradient1071)"/><path d="m3.673 21.542h185.82" stroke="url(#linearGradient1073)"/></g></g><g fill="url(#linearGradient1021)"><path d="m129.11 22.098h6.1006v129.25h-6.1006z"/><path d="m150.51 46.381q0-2.8114-1.975-4.4379-1.975-1.6497-7.2261-3.1135-5.2511-1.487-7.6676-3.2297-3.4388-2.4629-3.4388-6.4593 0-3.8802 3.1832-6.2967 3.2064-2.4397 8.1787-2.4397 3.3691 0 6.0179 1.3012 2.672 1.3012 4.1358 3.6247 1.4638 2.3235 1.4638 5.1814h-2.8811q0-3.462-2.37-5.5532-2.37-2.1144-6.3664-2.1144-3.8802 0-6.1805 1.7426-2.3003 1.7194-2.3003 4.5076 0 2.5791 2.0679 4.2055 2.0679 1.6264 6.622 2.8811 4.5541 1.2315 6.9008 2.5791 2.3467 1.3244 3.5317 3.1832t1.185 4.3914q0 3.9964-3.2064 6.4129-3.1832 2.4164-8.4111 2.4164-3.5782 0-6.5755-1.2779-2.9741-1.2779-4.5308-3.5782-1.5335-2.3003-1.5335-5.2744h2.8579q0 3.5782 2.672 5.6461 2.672 2.0679 7.1099 2.0679 3.95 0 6.3432-1.7426 2.3932-1.7426 2.3932-4.6238z" style="font-feature-settings:normal;font-variant-caps:normal;font-variant-ligatures:normal;font-variant-numeric:normal"/><path d="m128.73 141.87h-15.358l-3.4853 9.4799h-2.9973l12.802-33.83h2.7185l12.802 33.83h-2.9741zm-14.475-2.4397h13.569l-6.7846-18.425z" style="font-feature-settings:normal;font-variant-caps:normal;font-variant-ligatures:normal;font-variant-numeric:normal"/></g></svg>
