<svg width="6.304in" height="2.05in" enable-background="new 0 0 639.024 83.791" version="1.1" viewBox="0 0 605.18 196.8" xml:space="preserve" xmlns="http://www.w3.org/2000/svg" xmlns:osb="http://www.openswatchbook.org/uri/2009/osb" xmlns:xlink="http://www.w3.org/1999/xlink"><defs><linearGradient id="linearGradient1021" gradientTransform="matrix(4.8344 0 0 4.8651 -960.45 -2967.9)" osb:paint="solid"><stop stop-color="#fff" offset="0"/></linearGradient><linearGradient id="bammerlaan_blauw" osb:paint="solid"><stop stop-color="#00b3ff" offset="0"/></linearGradient><linearGradient id="linearGradient903" x1="291.27" x2="364.54" y1="-55.239" y2="-55.239" gradientTransform="matrix(3.4484 0 0 3.4484 -571.66 301.94)" gradientUnits="userSpaceOnUse" xlink:href="#bammerlaan_blauw"/><linearGradient id="linearGradient1065" x1="-.041878" x2="13.408" y1="7.1251" y2="7.1251" gradientTransform="matrix(14.738 0 0 32.332 412.58 -120.72)" gradientUnits="userSpaceOnUse" xlink:href="#linearGradient1021"/><linearGradient id="linearGradient1067" x1="-.041878" x2="13.408" y1="7.1251" y2="7.1251" gradientTransform="matrix(12.974 0 0 32.332 432.02 -120.72)" gradientUnits="userSpaceOnUse" xlink:href="#linearGradient1021"/><linearGradient id="linearGradient1069" x1="-.041878" x2="13.408" y1="7.1251" y2="7.1251" gradientTransform="matrix(14.118 0 0 32.332 415.48 -120.72)" gradientUnits="userSpaceOnUse" xlink:href="#linearGradient1021"/><linearGradient id="linearGradient1071" x1="-.041878" x2="13.408" y1="7.1251" y2="7.1251" gradientTransform="matrix(12.921 0 0 32.332 432.44 -120.72)" gradientUnits="userSpaceOnUse" xlink:href="#linearGradient1021"/><linearGradient id="linearGradient1073" x1="-.041878" x2="13.408" y1="7.1251" y2="7.1251" gradientTransform="matrix(14.503 0 0 32.332 414.02 -120.72)" gradientUnits="userSpaceOnUse" xlink:href="#linearGradient1021"/><linearGradient id="linearGradient966" x1="555.34" x2="637.74" y1="-103.67" y2="-103.67" gradientTransform="matrix(4.8344 0 0 4.8344 -2662.9 542.55)" gradientUnits="userSpaceOnUse" xlink:href="#bammerlaan_blauw"/><linearGradient id="linearGradient970" x1="179.2" x2="267.18" y1="-63.156" y2="-63.156" gradientTransform="matrix(4.8344 0 0 4.8344 -866.42 406.62)" gradientUnits="userSpaceOnUse" xlink:href="#bammerlaan_blauw"/><linearGradient id="linearGradient974" x1="216.6" x2="267.26" y1="-49.896" y2="-49.896" gradientTransform="matrix(4.8344 0 0 4.8344 -859.34 406.18)" gradientUnits="userSpaceOnUse" xlink:href="#bammerlaan_blauw"/></defs><g fill="url(#linearGradient966)">

<path d="m68.575 54.371q0-3.8052-1.8003-6.4238-1.7594-2.6595-5.6055-4.6644-3.8052-2.0458-11.538-4.1734t-11.62-4.2962q-3.8461-2.1686-5.6464-5.0327-1.8003-2.8641-1.8003-6.9557 0-6.5056 5.4827-10.515 5.4828-4.0507 14.28-4.0507 5.7283 0 10.27 2.2504 4.5826 2.2095 7.0784 6.2602 2.4959 4.0097 2.4959 9.0833h-2.2095q0-6.6693-4.9099-11.006-4.9099-4.378-12.725-4.378-7.8559 0-12.725 3.5188-4.8281 3.4778-4.8281 8.756 0 5.36 4.2144 8.6333 4.2143 3.2733 13.911 5.81 9.6971 2.4959 14.198 5.8101 5.7282 4.2143 5.7282 11.293 0 4.5008-2.5368 7.9786-2.5367 3.4369-7.2012 5.3191-4.6644 1.8821-10.474 1.8821-6.4647 0-11.62-2.1276-5.1554-2.1685-7.774-6.1374-2.5777-3.9688-2.5777-9.3698h2.2095q0 7.324 5.4828 11.375 5.4827 4.0507 14.28 4.0507 7.815 0 12.889-3.5597 5.0736-3.6006 5.0736-9.3288z" style="font-feature-settings:normal;font-variant-caps:normal;font-variant-ligatures:normal;font-variant-numeric:normal"/><path d="m97.257 69.469q-5.36 0-9.8607-2.8641-4.4599-2.905-6.9966-7.9377-2.5368-5.0326-2.5368-11.17v-1.8412q0-6.1374 2.455-11.252 2.4549-5.1145 6.7511-7.9786 4.2962-2.8641 9.3697-2.8641 7.4058 0 12.111 5.2782 4.7054 5.2782 4.7054 13.871v2.3322h-33.183v2.414q0 5.4009 2.2504 10.024 2.2913 4.5826 6.2601 7.2012 4.0098 2.6186 8.6742 2.6186 4.4599 0 7.5695-1.473 3.1505-1.5139 5.5646-4.6235l1.5548 1.1047q-4.9508 7.1603-14.689 7.1603zm-0.81831-43.698q-6.4647 0-10.965 4.828-4.5008 4.7872-5.2781 12.234h30.851v-0.53188q0-4.5008-1.9231-8.3469-1.8821-3.887-5.2372-6.0146-3.3142-2.1685-7.4467-2.1685z" style="font-feature-settings:normal;font-variant-caps:normal;font-variant-ligatures:normal;font-variant-numeric:normal"/><path d="m157.4 46.925q0 10.352-4.4598 16.448-4.4598 6.0965-12.152 6.0965-4.9917 0-8.9197-2.0458-3.9279-2.0867-6.1783-5.7692v6.9966h-2.2094v-62.847h2.2094v26.636q2.3322-4.378 6.1374-6.6284 3.8461-2.2504 8.8788-2.2504 7.7741 0 12.234 5.9737 4.4598 5.9328 4.4598 16.694zm-2.2913-0.85926q0-9.5334-3.8052-14.893-3.7643-5.4009-10.556-5.4009-5.5646 0-9.4516 2.8641-3.8461 2.8641-5.6055 8.5105v20.294q1.7594 4.7053 5.6055 7.283 3.887 2.5368 9.5334 2.5368 6.833 0 10.556-5.4418 3.7233-5.4418 3.7233-15.753z" style="font-feature-settings:normal;font-variant-caps:normal;font-variant-ligatures:normal;font-variant-numeric:normal"/><path d="m197.99 68.651q-0.81831-2.8232-0.81831-8.1014-2.6186 4.2553-7.1603 6.5875-4.5417 2.3322-10.27 2.3322-6.1374 0-9.9016-3.3142-3.7234-3.3551-3.7234-8.7151 0-6.0965 5.4828-9.738 5.5237-3.6824 14.648-3.7642h10.925v-6.4647q0-5.5646-3.5188-8.6333-3.4778-3.0687-9.9835-3.0687-6.0555 0-10.106 3.1096-4.0507 3.1096-4.0507 7.6922l-2.2094-0.0817q0-5.4009 4.7462-9.1652 4.7462-3.7643 11.62-3.7643 7.1603 0 11.375 3.6006 4.2143 3.5596 4.3371 10.065v21.154q0 7.283 1.1456 9.9017v0.36823zm-18.249-1.3502q6.2192 0 10.679-2.7823 4.5008-2.7823 6.7511-7.815v-10.515h-10.229q-9.4925 0-14.525 3.7643-4.0916 3.0687-4.0916 7.6513 0 4.0507 3.2323 6.8739 3.2324 2.8232 8.1832 2.8232z" style="font-feature-settings:normal;font-variant-caps:normal;font-variant-ligatures:normal;font-variant-numeric:normal"/><path d="m240.87 57.808q0-8.0605-13.748-10.965-8.265-1.7594-11.497-4.5008-3.2324-2.7823-3.2324-7.6104 0-4.869 4.0916-8.0195 4.1325-3.1506 10.72-3.1506 7.1603 0 11.497 3.437 4.3371 3.3961 4.3371 9.2061h-2.2504q0-4.4599-3.7643-7.4467-3.7642-2.9868-9.8198-2.9868-5.81 0-9.2061 2.5368-3.396 2.5368-3.396 6.3419 0 2.9869 1.2684 4.7053 1.2684 1.6776 4.1325 3.0687 2.8641 1.3502 8.3468 2.6186 5.4828 1.2684 8.6742 2.9869 3.1915 1.7185 4.6235 4.0916 1.4321 2.3322 1.4321 5.7282 0 5.2373-4.2962 8.4287-4.2962 3.1914-11.252 3.1914-7.4467 0-12.029-3.3551-4.5417-3.396-4.5417-8.7151h2.2095q0.32728 4.6644 4.0916 7.2831 3.8052 2.5777 10.27 2.5777 5.9328 0 9.6152-2.7414 3.7233-2.7823 3.7233-6.7102z" style="font-feature-settings:normal;font-variant-caps:normal;font-variant-ligatures:normal;font-variant-numeric:normal"/><path d="m260.27 12.433v11.947h10.065v2.2504h-10.065v31.423q0 4.7053 1.5139 6.9557 1.5548 2.2504 5.1554 2.2504 1.8003 0 4.378-0.36823l0.36838 2.0867q-1.3502 0.49099-4.6235 0.49099-4.8281 0-6.9148-2.6595-2.0867-2.7004-2.1276-8.4696v-31.71h-8.1832v-2.2504h8.1832v-11.947z" style="font-feature-settings:normal;font-variant-caps:normal;font-variant-ligatures:normal;font-variant-numeric:normal"/><path d="m284.57 68.651h-2.2095v-44.271h2.2095zm-3.3551-58.101q0-0.94106 0.65462-1.5957 0.65468-0.69557 1.5957-0.69557 0.94106 0 1.5957 0.69557 0.69557 0.65467 0.69557 1.5957 0 0.94106-0.69557 1.5957-0.65468 0.65462-1.5957 0.65462-0.94105 0-1.5957-0.65462-0.65462-0.65467-0.65462-1.5957z" style="font-feature-settings:normal;font-variant-caps:normal;font-variant-ligatures:normal;font-variant-numeric:normal"/><path d="m327.78 68.651q-0.81831-2.8232-0.81831-8.1014-2.6186 4.2553-7.1603 6.5875-4.5417 2.3322-10.27 2.3322-6.1374 0-9.9016-3.3142-3.7233-3.3551-3.7233-8.7151 0-6.0965 5.4827-9.738 5.5237-3.6824 14.648-3.7642h10.925v-6.4647q0-5.5646-3.5188-8.6333-3.4778-3.0687-9.9835-3.0687-6.0556 0-10.106 3.1096-4.0507 3.1096-4.0507 7.6922l-2.2094-0.0817q0-5.4009 4.7462-9.1652 4.7462-3.7643 11.62-3.7643 7.1602 0 11.375 3.6006 4.2143 3.5596 4.3371 10.065v21.154q0 7.283 1.1456 9.9017v0.36823zm-18.249-1.3502q6.2192 0 10.679-2.7823 4.5008-2.7823 6.7511-7.815v-10.515h-10.229q-9.4925 0-14.525 3.7643-4.0916 3.0687-4.0916 7.6513 0 4.0507 3.2324 6.8739 3.2324 2.8232 8.1832 2.8232z" style="font-feature-settings:normal;font-variant-caps:normal;font-variant-ligatures:normal;font-variant-numeric:normal"/><path d="m371.97 68.651q-0.81832-2.8232-0.81832-8.1014-2.6186 4.2553-7.1603 6.5875-4.5416 2.3322-10.27 2.3322-6.1374 0-9.9016-3.3142-3.7234-3.3551-3.7234-8.7151 0-6.0965 5.4828-9.738 5.5237-3.6824 14.648-3.7642h10.925v-6.4647q0-5.5646-3.5188-8.6333-3.4778-3.0687-9.9835-3.0687-6.0555 0-10.106 3.1096-4.0507 3.1096-4.0507 7.6922l-2.2094-0.0817q0-5.4009 4.7462-9.1652 4.7462-3.7643 11.62-3.7643 7.1603 0 11.375 3.6006 4.2143 3.5596 4.3371 10.065v21.154q0 7.283 1.1456 9.9017v0.36823zm-18.249-1.3502q6.2192 0 10.679-2.7823 4.5008-2.7823 6.7511-7.815v-10.515h-10.229q-9.4925 0-14.525 3.7643-4.0916 3.0687-4.0916 7.6513 0 4.0507 3.2324 6.8739 3.2324 2.8232 8.1831 2.8232z" style="font-feature-settings:normal;font-variant-caps:normal;font-variant-ligatures:normal;font-variant-numeric:normal"/><path d="m389.77 34.691q2.1686-5.1554 6.3829-8.1423 4.2143-2.9869 9.3288-2.9869 7.1194 0 10.556 4.0507 3.4778 4.0097 3.5188 12.152v28.887h-2.2094v-28.968q-0.0387-7.1194-2.905-10.515-2.8641-3.437-9.0834-3.437-5.7282 0-9.9426 4.0916-4.1734 4.0507-5.6464 10.474v28.355h-2.2095v-44.271h2.2095z" style="font-feature-settings:normal;font-variant-caps:normal;font-variant-ligatures:normal;font-variant-numeric:normal"/></g><g><g fill="url(#linearGradient970)" stroke-width="4.8344px" style="font-feature-settings:normal;font-variant-caps:normal;font-variant-ligatures:normal;font-variant-numeric:normal" aria-label="Ammerlaan"><path d="m38.461 115.62h-27.045l-6.1374 16.694h-5.2782l22.545-59.574h4.7872l22.545 59.574h-5.2372zm-25.491-4.2962h23.895l-11.947-32.446z" style="font-feature-settings:normal;font-variant-caps:normal;font-variant-ligatures:normal;font-variant-numeric:normal"/><path d="m61.988 88.045 0.16366 7.2012q2.455-4.0098 6.1374-6.0146t8.1832-2.0049q10.474 0 13.298 8.5923 2.3731-4.1325 6.342-6.342 3.9688-2.2504 8.756-2.2504 14.239 0 14.525 15.548v29.541h-4.9099v-29.173q-0.0409-5.9328-2.5777-8.7969-2.4959-2.8641-8.1832-2.8641-5.2782 0.08183-8.9197 3.4369-3.6415 3.3142-4.0507 8.1014v29.296h-4.9099v-29.541q-0.04092-5.6873-2.7005-8.4696-2.6186-2.8232-8.1014-2.8232-4.6235 0-7.9377 2.6595-3.3142 2.6186-4.9099 7.8149v30.36h-4.9099v-44.271z" style="font-feature-settings:normal;font-variant-caps:normal;font-variant-ligatures:normal;font-variant-numeric:normal"/><path d="m136.29 88.045 0.16366 7.2012q2.455-4.0098 6.1374-6.0146 3.6824-2.0049 8.1832-2.0049 10.474 0 13.298 8.5923 2.3731-4.1325 6.342-6.342 3.9688-2.2504 8.756-2.2504 14.239 0 14.525 15.548v29.541h-4.9099v-29.173q-0.0409-5.9328-2.5777-8.7969-2.4959-2.8641-8.1832-2.8641-5.2782 0.08183-8.9197 3.4369-3.6415 3.3142-4.0507 8.1014v29.296h-4.9099v-29.541q-0.0409-5.6873-2.7004-8.4696-2.6186-2.8232-8.1014-2.8232-4.6235 0-7.9377 2.6595-3.3142 2.6186-4.9099 7.8149v30.36h-4.9099v-44.271z" style="font-feature-settings:normal;font-variant-caps:normal;font-variant-ligatures:normal;font-variant-numeric:normal"/><path d="m223.28 133.13q-5.6464 0-10.229-2.7823-4.5417-2.7823-7.0784-7.7331-2.5368-4.9917-2.5368-11.17v-1.7594q0-6.3829 2.455-11.497 2.4959-5.1145 6.9148-8.0195 4.4189-2.9459 9.5743-2.9459 8.0604 0 12.766 5.5237 4.7462 5.4827 4.7462 15.016v2.7414h-31.587v0.94107q0 7.5285 4.2962 12.561 4.3371 4.9918 10.884 4.9918 3.9279 0 6.9148-1.4321 3.0278-1.4321 5.4827-4.5826l3.0687 2.3322q-5.4009 7.815-15.671 7.815zm-0.90015-41.734q-5.5236 0-9.3288 4.0507-3.7643 4.0507-4.5826 10.884h26.554v-0.53191q-0.20458-6.3829-3.6415-10.393-3.4369-4.0098-9.0015-4.0098z" style="font-feature-settings:normal;font-variant-caps:normal;font-variant-ligatures:normal;font-variant-numeric:normal"/><path d="m269.96 92.219q-1.5548-0.28641-3.3142-0.28641-4.5826 0-7.774 2.5777-3.1505 2.5368-4.5008 7.4058v30.401h-4.869v-44.271h4.7872l0.0818 7.0375q3.887-7.8559 12.479-7.8559 2.0458 0 3.2324 0.53191z" style="font-feature-settings:normal;font-variant-caps:normal;font-variant-ligatures:normal;font-variant-numeric:normal"/><path d="m283.14 132.32h-4.9099v-62.847h4.9099z" style="font-feature-settings:normal;font-variant-caps:normal;font-variant-ligatures:normal;font-variant-numeric:normal"/><path d="m324.42 132.32q-0.73649-2.0867-0.94107-6.1783-2.5777 3.3551-6.5875 5.1963-3.9688 1.8003-8.4287 1.8003-6.3829 0-10.352-3.5597-3.9279-3.5597-3.9279-9.0015 0-6.4647 5.36-10.229 5.4009-3.7643 15.016-3.7643h8.8788v-5.0327q0-4.7462-2.946-7.4467-2.905-2.7414-8.5105-2.7414-5.1145 0-8.4696 2.6186-3.3551 2.6186-3.3551 6.3011l-4.9099-0.0409q0-5.2782 4.9099-9.1243 4.9099-3.887 12.07-3.887 7.4058 0 11.661 3.7234 4.2962 3.6824 4.4189 10.311v20.949q0 6.4238 1.3502 9.6152v0.49099zm-15.384-3.5188q4.9099 0 8.756-2.3731 3.887-2.3731 5.6464-6.342v-9.738h-8.756q-7.324 0.0818-11.456 2.7004-4.1325 2.5777-4.1325 7.1194 0 3.7234 2.7414 6.1783 2.7823 2.455 7.2012 2.455z" style="font-feature-settings:normal;font-variant-caps:normal;font-variant-ligatures:normal;font-variant-numeric:normal"/><path d="m369.27 132.32q-0.73648-2.0867-0.94106-6.1783-2.5777 3.3551-6.5875 5.1963-3.9688 1.8003-8.4287 1.8003-6.3829 0-10.352-3.5597-3.9279-3.5597-3.9279-9.0015 0-6.4647 5.36-10.229 5.4009-3.7643 15.016-3.7643h8.8788v-5.0327q0-4.7462-2.946-7.4467-2.905-2.7414-8.5105-2.7414-5.1145 0-8.4696 2.6186-3.3551 2.6186-3.3551 6.3011l-4.9099-0.0409q0-5.2782 4.9099-9.1243 4.9099-3.887 12.07-3.887 7.4058 0 11.661 3.7234 4.2962 3.6824 4.4189 10.311v20.949q0 6.4238 1.3502 9.6152v0.49099zm-15.384-3.5188q4.9099 0 8.756-2.3731 3.887-2.3731 5.6464-6.342v-9.738h-8.756q-7.324 0.0818-11.456 2.7004-4.1325 2.5777-4.1325 7.1194 0 3.7234 2.7414 6.1783 2.7823 2.455 7.2012 2.455z" style="font-feature-settings:normal;font-variant-caps:normal;font-variant-ligatures:normal;font-variant-numeric:normal"/><path d="m390.83 88.045 0.16367 7.5694q2.4959-4.0916 6.2192-6.2192 3.7234-2.1685 8.2241-2.1685 7.1194 0 10.597 4.0098 3.4778 4.0098 3.5188 12.029v29.05h-4.869v-29.091q-0.0409-5.9328-2.5368-8.8378-2.455-2.905-7.8968-2.905-4.5417 0-8.0604 2.8641-3.4778 2.8232-5.1554 7.6513v30.319h-4.869v-44.271z" style="font-feature-settings:normal;font-variant-caps:normal;font-variant-ligatures:normal;font-variant-numeric:normal"/></g>






<g fill="url(#linearGradient974)" stroke-width="4.8344px" style="font-feature-settings:normal;font-variant-caps:normal;font-variant-ligatures:normal;font-variant-numeric:normal" aria-label="bariton"><path d="m214.19 174.26q0 10.352-4.4598 16.448-4.4598 6.0965-12.152 6.0965-4.9918 0-8.9197-2.0458-3.9279-2.0867-6.1783-5.7692v6.9966h-2.2095v-62.847h2.2095v26.636q2.3322-4.378 6.1374-6.6284 3.8461-2.2504 8.8788-2.2504 7.774 0 12.234 5.9737 4.4598 5.9328 4.4598 16.694zm-2.2913-0.85923q0-9.5334-3.8052-14.893-3.7643-5.4009-10.556-5.4009-5.5646 0-9.4516 2.8641-3.8461 2.8641-5.6055 8.5105v20.294q1.7594 4.7053 5.6055 7.283 3.887 2.5368 9.5334 2.5368 6.833 0 10.556-5.4418 3.7234-5.4418 3.7234-15.753z" style="font-feature-settings:normal;font-variant-caps:normal;font-variant-ligatures:normal;font-variant-numeric:normal"/><path d="m254.78 195.98q-0.81832-2.8232-0.81832-8.1014-2.6186 4.2553-7.1603 6.5875t-10.27 2.3322q-6.1374 0-9.9017-3.3142-3.7234-3.3551-3.7234-8.7151 0-6.0965 5.4827-9.738 5.5236-3.6824 14.648-3.7643h10.925v-6.4647q0-5.5646-3.5188-8.6333-3.4778-3.0687-9.9835-3.0687-6.0556 0-10.106 3.1096-4.0507 3.1096-4.0507 7.6922l-2.2095-0.0818q0-5.4009 4.7462-9.1652 4.7462-3.7643 11.62-3.7643 7.1603 0 11.375 3.6006 4.2144 3.5597 4.3371 10.065v21.154q0 7.283 1.1456 9.9017v0.36824zm-18.249-1.3502q6.2192 0 10.679-2.7823 4.5008-2.7823 6.7511-7.815v-10.515h-10.229q-9.4925 0-14.525 3.7643-4.0916 3.0687-4.0916 7.6513 0 4.0507 3.2324 6.8739t8.1832 2.8232z" style="font-feature-settings:normal;font-variant-caps:normal;font-variant-ligatures:normal;font-variant-numeric:normal"/><path d="m289.89 153.31-2.8641-0.2455q-5.6464 0-9.4516 3.6824-3.8052 3.6415-4.9917 10.229v29.009h-2.2095v-44.271h2.2095v9.2061q1.8003-4.6235 5.4009-7.324 3.6006-2.7004 9.0424-2.7004 1.923 0 3.1096 0.45007z" style="font-feature-settings:normal;font-variant-caps:normal;font-variant-ligatures:normal;font-variant-numeric:normal"/><path d="m301.1 195.98h-2.2095v-44.271h2.2095zm-3.3551-58.101q0-0.94107 0.65466-1.5957 0.65465-0.69557 1.5957-0.69557t1.5957 0.69557q0.69557 0.65465 0.69557 1.5957t-0.69557 1.5957q-0.65465 0.65466-1.5957 0.65466t-1.5957-0.65466q-0.65466-0.65465-0.65466-1.5957z" style="font-feature-settings:normal;font-variant-caps:normal;font-variant-ligatures:normal;font-variant-numeric:normal"/><path d="m320.66 139.76v11.947h10.065v2.2504h-10.065v31.423q0 4.7053 1.5139 6.9557 1.5548 2.2504 5.1554 2.2504 1.8003 0 4.378-0.36825l0.36825 2.0867q-1.3502 0.49099-4.6235 0.49099-4.8281 0-6.9148-2.6595-2.0867-2.7004-2.1276-8.4696v-31.71h-8.1832v-2.2504h8.1832v-11.947z" style="font-feature-settings:normal;font-variant-caps:normal;font-variant-ligatures:normal;font-variant-numeric:normal"/><path d="m338.05 172.99q0-6.342 2.414-11.375 2.455-5.0736 6.8739-7.8968 4.4598-2.8232 10.065-2.8232 5.5646 0 9.9835 2.7414t6.8739 7.774q2.4959 5.0327 2.5368 11.334v1.964q0 6.3829-2.414 11.416t-6.8739 7.8559q-4.4189 2.8232-10.024 2.8232t-10.065-2.7823q-4.4189-2.7823-6.8739-7.774-2.455-5.0327-2.4959-11.293zm2.2095 1.7185q0 5.5236 2.1685 10.147 2.2095 4.5826 6.0965 7.1603 3.9279 2.5777 8.9606 2.5777 7.5694 0 12.316-5.6873 4.7872-5.6873 4.7872-14.648v-1.2684q0-5.4418-2.2095-10.065-2.2095-4.6235-6.1374-7.2012-3.887-2.6186-8.8378-2.6186-7.5694 0-12.357 5.7692-4.7872 5.7692-4.7872 14.525z" style="font-feature-settings:normal;font-variant-caps:normal;font-variant-ligatures:normal;font-variant-numeric:normal"/><path d="m389.77 162.02q2.1685-5.1554 6.3829-8.1423 4.2144-2.9869 9.3288-2.9869 7.1194 0 10.556 4.0507 3.4779 4.0098 3.5188 12.152v28.887h-2.2095v-28.968q-0.0409-7.1194-2.905-10.515-2.8641-3.4369-9.0833-3.4369-5.7282 0-9.9426 4.0916-4.1734 4.0507-5.6464 10.474v28.355h-2.2095v-44.271h2.2095z" style="font-feature-settings:normal;font-variant-caps:normal;font-variant-ligatures:normal;font-variant-numeric:normal"/></g>






<rect x="432.76" y="23.438" width="172.42" height="172.42" fill="url(#linearGradient903)" style="paint-order:normal"/></g><g fill="none" stroke-linecap="square" stroke-linejoin="round">



<path d="m418.31 174.31h185.86" stroke="url(#linearGradient1065)" stroke-width="2.0202"/><g stroke-width="2.02"><path d="m433.78 141.98h170.39" stroke="url(#linearGradient1067)"/><path d="m415.6 109.64h188.46" stroke="url(#linearGradient1069)"/><path d="m433.78 77.311h170.39" stroke="url(#linearGradient1071)"/></g><path d="m418.28 44.979h185.89" stroke="url(#linearGradient1073)" stroke-width="2.0204"/></g><g fill="url(#linearGradient1021)"><path d="m543.79 45.536h6.1006v129.25h-6.1006z"/><path d="m565.18 69.819q0-2.8114-1.975-4.4379-1.975-1.6497-7.2261-3.1135-5.2511-1.487-7.6676-3.2297-3.4388-2.4629-3.4388-6.4593 0-3.8802 3.1832-6.2967 3.2064-2.4397 8.1787-2.4397 3.3691 0 6.0179 1.3012 2.672 1.3012 4.1358 3.6247 1.4638 2.3235 1.4638 5.1814h-2.8811q0-3.462-2.37-5.5532-2.37-2.1144-6.3664-2.1144-3.8802 0-6.1805 1.7426-2.3003 1.7194-2.3003 4.5076 0 2.5791 2.0679 4.2055 2.0679 1.6264 6.622 2.8811 4.5541 1.2315 6.9008 2.5791 2.3467 1.3244 3.5317 3.1832t1.185 4.3914q0 3.9964-3.2064 6.4129-3.1832 2.4164-8.4111 2.4164-3.5782 0-6.5755-1.2779-2.9741-1.2779-4.5308-3.5782-1.5335-2.3003-1.5335-5.2744h2.8579q0 3.5782 2.672 5.6461 2.672 2.0679 7.1099 2.0679 3.95 0 6.3432-1.7426 2.3932-1.7426 2.3932-4.6238z" style="font-feature-settings:normal;font-variant-caps:normal;font-variant-ligatures:normal;font-variant-numeric:normal"/><path d="m543.41 165.31h-15.358l-3.4853 9.4799h-2.9973l12.802-33.83h2.7185l12.802 33.83h-2.9741zm-14.475-2.4397h13.569l-6.7846-18.425z" style="font-feature-settings:normal;font-variant-caps:normal;font-variant-ligatures:normal;font-variant-numeric:normal"/></g></svg>
