<?xml version="1.0" encoding="UTF-8" standalone="no"?>
<svg
   xmlns:dc="http://purl.org/dc/elements/1.1/"
   xmlns:cc="http://creativecommons.org/ns#"
   xmlns:rdf="http://www.w3.org/1999/02/22-rdf-syntax-ns#"
   xmlns:svg="http://www.w3.org/2000/svg"
   xmlns="http://www.w3.org/2000/svg"
   xmlns:sodipodi="http://sodipodi.sourceforge.net/DTD/sodipodi-0.dtd"
   xmlns:inkscape="http://www.inkscape.org/namespaces/inkscape"
   version="1.1"
   id="svg2"
   xml:space="preserve"
   width="169.55867"
   height="59.48933"
   viewBox="0 0 169.55867 59.489331"
   sodipodi:docname="NederlandsKamerkoor_Logo_White_CMYK.svg"
   inkscape:version="1.0.2 (e86c870879, 2021-01-15)"><metadata
     id="metadata8"><rdf:RDF><cc:Work
         rdf:about=""><dc:format>image/svg+xml</dc:format><dc:type
           rdf:resource="http://purl.org/dc/dcmitype/StillImage" /><dc:title></dc:title></cc:Work></rdf:RDF></metadata><defs
     id="defs6"><clipPath
       clipPathUnits="userSpaceOnUse"
       id="clipPath18"><path
         d="M 0,74.158 H 158.537 V 0 H 0 Z"
         id="path16" /></clipPath></defs><sodipodi:namedview
     pagecolor="#ffffff"
     bordercolor="#666666"
     borderopacity="1"
     objecttolerance="10"
     gridtolerance="10"
     guidetolerance="10"
     inkscape:pageopacity="0"
     inkscape:pageshadow="2"
     inkscape:window-width="640"
     inkscape:window-height="480"
     id="namedview4"
     showgrid="false"
     inkscape:pagecheckerboard="true"
     fit-margin-top="0"
     fit-margin-left="0"
     fit-margin-right="0"
     fit-margin-bottom="0"
     inkscape:zoom="5.9748204"
     inkscape:cx="115.00564"
     inkscape:cy="43.758935"
     inkscape:current-layer="g10" /><g
     id="g10"
     inkscape:groupmode="layer"
     inkscape:label="NederlandsKamerkoor_Logo_White_CMYK"
     transform="matrix(1.3333333,0,0,-1.3333333,-19.5888,81.705198)"><g
       id="g12"><g
         id="g14"
         clip-path="url(#clipPath18)"><g
           id="g20"
           transform="translate(136.7986,32.7169)"><path
             d="m 0,0 h -4.196 v -15.824 h 2.834 V -2.835 H 0 c 1.228,0 2.227,-1.001 2.227,-2.228 H 5.062 C 5.062,-2.271 2.791,0 0,0 m -13.091,9.688 c 1.229,0 2.228,1 2.228,2.228 v 7.926 h -4.458 V 9.688 Z m -0.001,16.038 v 2.836 c 2.641,0 5.063,-2.423 5.063,-5.063 V 11.917 c 0,-2.944 -2.119,-5.064 -5.062,-5.064 h -5.064 v 15.824 h 7.292 v 0.822 c 0,1.227 -1.001,2.227 -2.229,2.227 m -29.32,-41.55 v 7.496 h 1.703 l 2.754,-2.754 v -4.742 h 2.835 v 5.916 l -2.998,2.997 2.998,2.998 V 0 h -2.835 v -2.739 l -2.755,-2.755 h -1.702 v 9.155 h -2.835 V -15.824 Z M -108.75,0 h -2.834 v -2.739 l -2.755,-2.755 h -1.703 v 9.155 h -2.834 v -14.48 l -3.231,-3.231 2.004,-2.005 4.061,4.061 v 3.666 h 1.704 l 2.754,-2.754 v -4.742 h 2.834 v 5.916 l -2.997,2.997 2.997,2.998 z m 29.928,0 h -13.322 v -15.824 h 2.836 v 12.989 h 4.456 v -12.989 h 2.835 v 12.989 h 2.02 l 2.843,-2.843 v -10.146 h 2.835 v 11.32 z m 46.791,22.677 V 6.853 h 2.835 v 12.989 h 4.457 V 6.853 h 2.834 v 15.824 z m -84.841,0 -3.231,3.231 -2.004,-2.005 3.231,-3.23 V 6.853 h 2.835 v 12.989 h 4.457 V 6.853 h 2.834 v 15.824 z m 104.243,-35.897 -2.815,2.816 v 5.572 c 0,1.228 0.999,2.228 2.227,2.228 h 0.718 c 1.228,0 2.228,-1 2.228,-2.228 v -6.16 c 0,-1.23 -1,-2.228 -2.228,-2.228 z m -5.651,8.388 v -6.746 l 4.477,-4.477 h 1.304 c 2.868,0 5.063,2.196 5.063,5.064 v 6.159 c 0,2.867 -2.195,5.062 -5.063,5.062 h -0.718 c -2.866,0 -5.063,-2.195 -5.063,-5.062 m -8.39,2.228 2.816,-2.817 v -5.572 c 0,-1.228 -1,-2.227 -2.228,-2.227 H -26.8 c -1.227,0 -2.228,0.999 -2.228,2.227 v 6.16 c 0,1.229 1.001,2.229 2.228,2.229 z m 5.651,-8.388 v 6.746 L -25.496,0.23 H -26.8 c -2.867,0 -5.062,-2.196 -5.062,-5.063 v -6.159 c 0,-2.868 2.195,-5.063 5.062,-5.063 h 0.718 c 2.866,0 5.063,2.195 5.063,5.063 m -79.888,2.46 c -1.228,0 -2.228,-0.988 -2.228,-2.216 0,-1.23 1,-2.23 2.228,-2.23 h 2.229 v 4.446 h -2.229 m 0,-7.292 c -2.792,0 -5.065,2.272 -5.065,5.063 0,2.792 2.273,5.064 5.065,5.064 h 2.229 v 2.862 h -5.875 V 0 h 8.709 v -15.824 z m 60.062,29.97 c -1.228,0 -2.228,-0.989 -2.228,-2.217 0,-1.229 1,-2.229 2.228,-2.229 h 2.23 v 4.446 h -2.23 m 0,-7.293 c -2.791,0 -5.064,2.272 -5.064,5.064 0,2.791 2.273,5.063 5.064,5.063 h 2.23 v 2.862 h -5.875 v 2.835 h 8.709 V 6.853 Z m -32.482,8.762 c 1.228,0 2.228,0.988 2.228,2.216 0,1.229 -1,2.229 -2.228,2.229 -1.229,0 -2.229,-1 -2.229,-2.229 v -2.216 h 2.229 m 5.064,2.228 c 0,-2.792 -2.273,-5.063 -5.064,-5.063 h -2.229 V 9.688 h 5.875 V 6.853 h -8.71 v 10.99 c 0,2.792 2.272,5.064 5.064,5.064 2.791,0 5.064,-2.272 5.064,-5.064 m 2.673,-24.905 c 1.228,0 2.228,0.987 2.228,2.216 0,1.229 -1,2.229 -2.228,2.229 -1.228,0 -2.229,-1 -2.229,-2.229 v -2.216 h 2.229 m 5.065,2.228 c 0,-2.792 -2.273,-5.063 -5.065,-5.063 h -2.229 v -3.093 h 5.875 v -2.834 h -8.709 v 10.99 c 0,2.791 2.271,5.064 5.063,5.064 2.792,0 5.065,-2.273 5.065,-5.064 m -39.657,20.449 c 1.228,0 2.228,0.988 2.228,2.216 0,1.229 -1,2.229 -2.228,2.229 -1.229,0 -2.229,-1 -2.229,-2.229 v -2.216 h 2.229 m 5.064,2.228 c 0,-2.792 -2.273,-5.063 -5.064,-5.063 h -2.229 V 9.688 h 5.874 V 6.853 h -8.709 v 10.99 c 0,2.792 2.272,5.064 5.064,5.064 2.791,0 5.064,-2.272 5.064,-5.064 m 8.038,-8.155 c 1.229,0 2.228,1 2.228,2.228 v 7.926 h -4.457 V 9.688 Z m 5.063,2.229 c 0,-2.944 -2.119,-5.064 -5.063,-5.064 h -5.064 v 15.824 h 7.292 v 0.822 c 0,2.64 2.422,5.063 5.063,5.063 v -2.836 c -1.228,0 -2.228,-1 -2.228,-2.227 z M -52.788,0 h -4.196 v -15.824 h 2.835 v 12.989 h 1.361 c 1.228,0 2.227,-1.001 2.227,-2.228 h 2.835 c 0,2.792 -2.27,5.063 -5.062,5.063 m -7.963,22.677 h -4.196 V 6.853 h 2.834 v 12.989 h 1.362 c 1.228,0 2.227,-1.001 2.227,-2.228 h 2.836 c 0,2.791 -2.271,5.063 -5.063,5.063 M -48.145,6.853 v 2.835 c -1.228,0 -2.228,1 -2.228,2.228 v 15.185 h -2.835 V 11.916 c 0,-2.943 2.12,-5.063 5.063,-5.063 m 45.996,11.579 7.211,-6.09 v -0.655 c 0,-2.793 -2.272,-5.064 -5.063,-5.064 -2.792,0 -5.064,2.271 -5.064,5.064 h 2.835 c 0,-1.229 1.001,-2.23 2.229,-2.23 1.023,0 1.889,0.695 2.147,1.638 l -7.211,6.09 v 0.658 c 0,2.793 2.272,5.064 5.064,5.064 2.791,0 5.063,-2.271 5.063,-5.064 H 2.228 c 0,1.229 -1.001,2.23 -2.229,2.23 -1.024,0 -1.891,-0.698 -2.148,-1.641"
             style="fill:#ffffff;fill-opacity:1;fill-rule:nonzero;stroke:none"
             id="path22" /></g></g></g></g></svg>
